<svg width="19" height="19" fill="none" xmlns="http://www.w3.org/2000/svg"><g opacity=".1"><circle cx="9.5" cy="9.5" r="9" fill="#414141" stroke="#949494"/><mask id="a" fill="#fff"><path d="M8.069 12.936a.244.244 0 0 0 .166.064c.06 0 .12-.021.167-.064l3.529-3.281a.208.208 0 0 0 0-.31l-3.53-3.28a.248.248 0 0 0-.332 0 .208.208 0 0 0 0 .308L11.432 9.5l-3.363 3.127a.208.208 0 0 0 0 .309z"/></mask><path d="M8.069 12.936a.244.244 0 0 0 .166.064c.06 0 .12-.021.167-.064l3.529-3.281a.208.208 0 0 0 0-.31l-3.53-3.28a.248.248 0 0 0-.332 0 .208.208 0 0 0 0 .308L11.432 9.5l-3.363 3.127a.208.208 0 0 0 0 .309z" fill="#747474"/><path d="m8.069 12.936 1.362-1.465-.002-.002-1.36 1.467zm.333 0L7.04 11.47l1.362 1.465zm3.529-3.281 1.362 1.464-1.362-1.464zm0-.31-1.362 1.465 1.362-1.465zm-3.53-3.28 1.362-1.466-1.361 1.465zm-.332.308L6.707 7.838 8.07 6.373zM11.432 9.5l1.362 1.465L14.369 9.5l-1.575-1.465L11.432 9.5zm-3.363 3.127-1.362-1.465 1.362 1.465zm0 .309L6.707 14.4c.444.412 1.002.599 1.528.599v-4c.406 0 .844.144 1.196.471l-1.362 1.465zm.166.064v2c.526 0 1.085-.187 1.528-.6l-1.361-1.464L7.04 11.47c.352-.327.79-.471 1.195-.471v2zm.167-.064L9.763 14.4l3.53-3.282-1.362-1.464-1.362-1.465-3.53 3.281 1.363 1.465zm3.529-3.281 1.362 1.464a2.208 2.208 0 0 0 0-3.238L11.93 9.345l-1.362 1.465a1.792 1.792 0 0 1 0-2.62l1.362 1.465zm0-.31 1.362-1.464-3.53-3.282-1.361 1.465L7.04 7.53l3.53 3.281 1.361-1.465zm-3.53-3.28 1.362-1.466c-.86-.799-2.196-.799-3.056 0L8.07 6.064 9.431 7.53a1.752 1.752 0 0 1-2.391 0l1.362-1.465zm-.332 0L6.707 4.598a2.208 2.208 0 0 0 0 3.24L8.07 6.372 9.431 4.91a1.792 1.792 0 0 1 0 2.62L8.069 6.064zm0 .308L6.707 7.838l3.363 3.127L11.432 9.5l1.362-1.465L9.43 4.91 8.069 6.373zM11.432 9.5 10.07 8.035l-3.363 3.127 1.362 1.465 1.362 1.464 3.363-3.126L11.432 9.5zm-3.363 3.127-1.362-1.465a2.208 2.208 0 0 0 .002 3.24l1.36-1.466 1.36-1.467c.762.708.76 1.918.002 2.622l-1.362-1.464z" fill="#B8B8B8" mask="url(#a)"/></g></svg>