<svg width="46" height="47" fill="none" xmlns="http://www.w3.org/2000/svg"><path d="m40.245 44.664-33.743.665c-2.33.046-4.256-1.848-4.303-4.228L1.802 20.98c-.047-2.382 1.804-4.35 4.133-4.395l2.812-.056 11.757-9.603a2.956 2.956 0 0 1-.104-.69c-.031-1.587 1.203-2.9 2.755-2.93 1.553-.031 2.836 1.232 2.868 2.819.01.516-.124.997-.35 1.421l11.194 8.43 2.812-.056c2.328-.046 4.256 1.847 4.303 4.229l.396 20.12c.047 2.38-1.805 4.35-4.133 4.395zm-15.548-8.92 5.668-.111-.022-1.09-4.47.089-.162-8.175-1.197.023.183 9.265zm-8.11.16.938-2.826 3.807-.075 1.099 2.786 1.367-.027-3.878-9.19-1.299.026-3.301 9.331 1.268-.025zm-8.541-8.01c-.251.412-.372.853-.363 1.32.009.427.122.809.341 1.15.22.34.547.62.983.846.335.174.92.355 1.753.543.834.188 1.373.328 1.618.42.38.142.656.316.827.53.172.214.261.463.267.754.005.284-.075.552-.24.798-.166.246-.422.443-.77.589a3.205 3.205 0 0 1-1.202.234 3.327 3.327 0 0 1-1.39-.25c-.415-.174-.722-.409-.922-.704-.2-.295-.334-.675-.397-1.138l-1.13.123c.03.619.206 1.169.53 1.653.325.484.766.844 1.323 1.078.559.233 1.246.342 2.064.326.644-.013 1.222-.145 1.734-.398.51-.252.9-.596 1.166-1.038.267-.442.396-.906.386-1.4a2.328 2.328 0 0 0-.404-1.306c-.26-.376-.655-.683-1.188-.92-.368-.16-1.038-.344-2.013-.55-.976-.206-1.58-.415-1.814-.626a1.057 1.057 0 0 1-.367-.813c-.008-.385.152-.714.477-.992.325-.279.848-.425 1.57-.44.695-.013 1.222.126 1.583.415.361.29.576.726.65 1.306l1.15-.112a2.858 2.858 0 0 0-.47-1.449c-.283-.423-.685-.74-1.2-.951-.517-.211-1.11-.309-1.78-.296a4.204 4.204 0 0 0-1.653.35c-.497.219-.869.534-1.12.947zm16.966-19.52a2.752 2.752 0 0 1-1.743.68 2.78 2.78 0 0 1-2.284-1.135l-10.832 8.583 25.308-.499-10.449-7.63zm13.534 26.008-5.558.11-.062-3.155 5.008-.099-.021-1.09-5.008.1-.056-2.842 5.35-.105-.022-1.09-6.546.13.182 9.262 6.756-.133-.023-1.088zm-19.294-6.83c.156.504.382 1.142.68 1.917l1.005 2.542-3.091.061.951-2.732c.196-.589.347-1.185.455-1.788z" fill="#000"/></svg>